<?xml version="1.0" encoding="UTF-8"?><svg id="Layer_1" xmlns="http://www.w3.org/2000/svg" viewBox="0 0 265.24 104.92"><defs><style>.cls-1{fill:#1d1d1b;}</style></defs><g id="Layer_2" transform="translate(0 0)"><g id="Layer_1-2"><path id="Path_14" class="cls-1" d="M143.63,104.43h104.53V0h-104.53V104.43ZM197.29,6.72c1.32,4.8,2.45,9.71,3.56,14.66-17.82,5-34.74,12.78-50.13,23.06V6.72h46.57Zm6.16,45.4c.01,8.34-.59,16.66-1.81,24.91-18.2-5.24-35.4-13.49-50.88-24.41,15.5-10.91,32.72-19.15,50.95-24.37,1.15,7.94,1.72,15.96,1.71,23.98m37.93,45.4h-90.8V60.73c15.31,10.21,32.11,17.98,49.81,23.02-.89,4.7-1.99,9.32-3.24,13.88h7.12c1.07-4.01,1.99-8.06,2.78-12.17,11.23,2.67,22.69,4.24,34.23,4.7l.11,7.47Zm0-14.23c-11.14-.46-22.21-2.01-33.05-4.63,1.31-8.77,1.98-17.63,1.99-26.51-.01-8.6-.64-17.18-1.89-25.69,10.8-2.63,21.84-4.18,32.95-4.63v61.45Zm0-68.24c-11.49,.44-22.9,2-34.09,4.66-.78-4.38-1.78-8.68-2.92-12.95h37V15.16Z"/><path id="Path_15" class="cls-1" d="M17.58,83.33l-5.59-1.25c-2.74-.6-4.06-2.13-4.06-4.27,.34-2.91,2.96-5.01,5.87-4.7,3.62-.3,6.85,2.27,7.36,5.87l6.08-2.28c-1.49-6.14-7.31-10.22-13.59-9.5-6.51-.31-12.08,4.63-12.56,11.14,.02,5.06,3.8,9.32,8.82,9.93l6.01,1.32c2.95,.68,4.55,2.35,4.55,4.55-.36,2.95-3.04,5.06-5.99,4.7h-.02c-4.13,.41-7.81-2.6-8.22-6.72h0l-6.26,2.2c.6,4.06,4.7,10.28,14.41,10.28,8.72,0,12.92-5.94,12.92-10.92-.17-5.44-4.33-9.93-9.75-10.5"/><path id="Path_16" class="cls-1" d="M48.82,67.21c-9.81,.48-17.38,8.82-16.9,18.64h0c-.59,9.81,6.88,18.24,16.69,18.83,.37,.02,.73,.03,1.1,.03,7.19,.26,13.67-4.29,15.87-11.14l-5.98-2.06c-1.18,4.43-5.32,7.41-9.89,7.12-5.9,0-10.67-4.78-10.67-10.67h26.58c.05-.73,.05-1.47,0-2.21,0-11.03-6.08-18.5-16.97-18.5m-9.54,15.12c.25-5.11,4.49-9.1,9.61-9.04,4.91-.43,9.25,3.2,9.68,8.11,.03,.31,.04,.62,.03,.93h-19.32Z"/><rect id="Rectangle_2" class="cls-1" x="73.76" y="57.32" width="6.9" height="46.36"/><path id="Path_17" class="cls-1" d="M121.43,97.13v-28.78h-6.83v4.98c-1.96-4.02-6.22-6.39-10.67-5.94-9.96,0-16.72,8.36-16.72,18.36s6.37,18.86,16.72,18.86c4.56,.17,8.81-2.28,10.96-6.3v.57c0,1.6,.11,3.19,.36,4.77h6.69c-.23-2.16-.35-4.34-.36-6.51m-17.08,1.39c-6.62,0-10.35-5.51-10.35-12.77s4.13-12.27,10.42-12.27,10.14,4.98,10.14,12.27-3.95,12.77-10.21,12.77"/><path id="Path_18" class="cls-1" d="M22.88,48.89H121.11v-16.26c.17-4.01-1.09-7.94-3.56-11.1-2.98-3.38-7.39-5.15-11.88-4.77h-25.58v-4.23h-6.72v29.78h-17.47V.25h-6.72V42.3H31.99V12.52h-9.11C9.04,12.52,.11,19.43,.11,30.06c0,13.88,11.74,18.82,22.77,18.82m57.21-6.58V23.48h25.69c2.53-.22,5.03,.74,6.76,2.6,1.37,1.89,2.03,4.21,1.85,6.55v9.68h-34.3ZM20.67,19.39h4.59v22.91h-4.59c-6.9,0-13.84-3.74-13.84-12.1,0-7.47,6.94-10.67,13.84-10.67"/><path id="Path_19" class="cls-1" d="M28.64,.25h0c-1.97,0-3.56,1.59-3.56,3.56s1.59,3.56,3.56,3.56,3.56-1.59,3.56-3.56S30.61,.25,28.64,.25"/><path id="Path_20" class="cls-1" d="M17.4,.25h0c-1.97,0-3.56,1.59-3.56,3.56s1.59,3.56,3.56,3.56,3.56-1.59,3.56-3.56S19.36,.25,17.4,.25"/><path id="Path_21" class="cls-1" d="M260.19,101.58l-1.28-2.35h-1.03v2.28h-.89v-5.84h2.35c.26-.04,.52-.04,.78,0,.22,.1,.43,.23,.6,.39,.17,.16,.3,.35,.39,.57,.05,.23,.05,.48,0,.71,0,.36-.09,.72-.28,1.03-.2,.31-.5,.54-.85,.64l1.28,2.49h-1.07v.07Zm-1.03-3.56c.24,.01,.48-.06,.68-.21,.33-.35,.33-.9,0-1.25-.19-.16-.43-.25-.68-.25h-1.28v1.6h0l1.28,.11Z"/><path id="Path_22" class="cls-1" d="M258.84,104.92c-3.52-.02-6.35-2.89-6.33-6.4,.02-3.52,2.89-6.35,6.4-6.33,3.52,.02,6.35,2.89,6.33,6.4,0,1.68-.68,3.29-1.88,4.48-1.2,1.19-2.83,1.86-4.53,1.85m0-11.28c-2.71,.02-4.89,2.24-4.87,4.95,.02,2.71,2.24,4.89,4.95,4.87s4.89-2.24,4.87-4.95c0-1.3-.53-2.54-1.45-3.45-.93-.92-2.19-1.43-3.49-1.42"/></g></g></svg>